# xmcd CD database file
#
# Track frame offsets:
#	150
#	31912
#	111355
#	147267
#	175389
#
# Disc length: 3270 seconds
#
# Revision: 0
# Processed by: cddbd v1.5.2PL0 Copyright (c) Steve Scherf et al.
# Submitted via: CDex 1.51
#
DISCID=410cc405
DTITLE=e.s.t. - Live In Hamburg [CD2]
DYEAR=2007
DGENRE=Jazz
TTITLE0=The Goldhearted Miner
TTITLE1=Dolores In A Shoestand
TTITLE2=Sipping On The Solid Ground
TTITLE3=Goldwrap
TTITLE4=Behind The Yashmak
EXTD=YEAR: 2007
EXTT0=
EXTT1=
EXTT2=
EXTT3=
EXTT4=
PLAYORDER=
